<svg enable-background="new 0 0 248.365 276.553" height="277" viewBox="0 0 248.365 276.553" width="249" xmlns="http://www.w3.org/2000/svg"><path d="m229.726 71.099c-29.598-58.818-101.634-82.204-160.227-51.691-56.687 29.52-79.66 99.67-51.433 157.012 16.353 33.22 46.165 55.309 79.56 63.011 10.899 2.514 20.109 9.752 25.137 19.743l.272.541c4.886 9.709 16.717 13.619 26.426 8.733l75.392-37.938c9.709-4.886 13.619-16.717 8.733-26.426l-.271-.539c-5.053-10.041-5.298-21.791-.814-32.099 13.52-31.076 13.65-67.707-2.775-100.347z" fill="#fff"/><path d="m140.64 276.561c-2.711 0-5.434-.435-8.083-1.31-6.513-2.152-11.798-6.712-14.881-12.839l-.271-.54c-4.242-8.429-11.941-14.478-21.127-16.596-36.564-8.433-67.033-32.564-83.594-66.207-14.35-29.148-16.638-62.338-6.445-93.457 10.192-31.119 31.675-56.521 60.489-71.527 29.738-15.485 63.674-18.347 95.554-8.055 31.888 10.293 57.743 32.444 72.803 62.373 16.63 33.047 17.693 71.478 2.918 105.438-3.808 8.75-3.562 18.594.671 27.008l.271.54c3.084 6.127 3.597 13.088 1.444 19.601s-6.713 11.798-12.84 14.881l-75.392 37.938c-3.633 1.828-7.563 2.752-11.517 2.752zm-16.634-264.596c-17.8 0-35.462 4.29-51.735 12.765-53.627 27.927-75.529 94.786-48.822 149.04 14.962 30.394 42.489 52.195 75.525 59.813 12.674 2.923 23.298 11.268 29.147 22.894l.271.539c1.644 3.266 4.459 5.695 7.929 6.841 3.47 1.148 7.177.874 10.441-.769l75.392-37.938c3.265-1.643 5.693-4.458 6.84-7.927 1.146-3.469.874-7.178-.769-10.441l-.271-.54c-5.841-11.607-6.189-25.162-.956-37.189 13.35-30.683 12.39-65.402-2.633-95.256-13.605-27.037-36.963-47.048-65.771-56.347-11.354-3.666-23.001-5.485-34.588-5.485z"/><path d="m135.838 165.767-1.62 28.198c-.419 7.288 7.209 12.296 13.73 9.015l25.23-12.696c6.521-3.281 7.044-12.391.942-16.398l-23.61-15.502c-6.102-4.006-14.253.095-14.672 7.383z"/><circle cx="174.254" cy="111.327" r="28.271"/><circle cx="83.899" cy="156.794" r="28.271"/><path d="m158.666 269.82c-2.195 0-4.311-1.209-5.364-3.304l-11.054-21.966c-1.49-2.96-.298-6.567 2.662-8.057 2.96-1.489 6.567-.297 8.057 2.663l11.054 21.966c1.49 2.96.298 6.567-2.662 8.057-.866.435-1.787.641-2.693.641z"/><path d="m192.27 252.911c-2.195 0-4.311-1.209-5.364-3.305l-11.053-21.966c-1.49-2.96-.298-6.567 2.662-8.057 2.962-1.489 6.567-.297 8.057 2.663l11.053 21.966c1.49 2.96.298 6.567-2.662 8.057-.866.435-1.787.642-2.693.642z"/><path d="m215.906 241.017c-2.195 0-4.311-1.209-5.364-3.304l-11.054-21.965c-1.49-2.96-.298-6.567 2.662-8.057 2.962-1.491 6.568-.297 8.057 2.662l11.054 21.965c1.49 2.96.298 6.567-2.662 8.057-.865.435-1.786.642-2.693.642z"/></svg>